<svg xmlns="http://www.w3.org/2000/svg" version="1.1" xmlns:xlink="http://www.w3.org/1999/xlink" xmlns:svgjs="http://svgjs.com/svgjs" width="1440" height="559" preserveAspectRatio="none" viewBox="0 0 1440 559"><g clip-path="url(&quot;#SvgjsClipPath1288&quot;)" fill="none"><rect width="1440" height="559" x="0" y="0" fill="url(#SvgjsRadialGradient1289)"></rect><circle r="93.165" cx="-75.54" cy="-34.38" stroke="#365aa3" stroke-opacity="0.25" stroke-width="2"></circle><circle r="93.165" cx="391.38" cy="448.78" stroke="#365aa3" stroke-opacity="0.25" stroke-width="2"></circle><circle r="93.165" cx="817.56" cy="749.43" stroke="#365aa3" stroke-opacity="0.25" stroke-width="2"></circle><circle r="154.745" cx="23.3" cy="143.33" stroke="#365aa3" stroke-opacity="0.25" stroke-width="2"></circle><circle r="129.65" cx="187.58" cy="382.69" stroke="#365aa3" stroke-opacity="0.25" stroke-width="2"></circle><circle r="147.225" cx="424.18" cy="360.57" stroke="#365aa3" stroke-opacity="0.25" stroke-width="2"></circle><circle r="77.855" cx="167.05" cy="520.48" stroke="#365aa3" stroke-opacity="0.25" stroke-width="2"></circle><circle r="70.845" cx="1275.53" cy="173.45" stroke="#365aa3" stroke-opacity="0.25" stroke-width="2"></circle><circle r="47.24" cx="282.54" cy="468.92" stroke="#365aa3" stroke-opacity="0.25" stroke-width="2"></circle><circle r="116.595" cx="1140.99" cy="42.45" stroke="#365aa3" stroke-opacity="0.25" stroke-width="2"></circle><circle r="69.685" cx="1084.12" cy="134.21" stroke="#365aa3" stroke-opacity="0.25" stroke-width="2"></circle><circle r="99.815" cx="56.31" cy="334.22" stroke="#365aa3" stroke-opacity="0.25" stroke-width="2"></circle><circle r="114.065" cx="1062.57" cy="20.74" stroke="#365aa3" stroke-opacity="0.25" stroke-width="2"></circle><circle r="68.535" cx="703.79" cy="462.88" stroke="#365aa3" stroke-opacity="0.25" stroke-width="2"></circle><circle r="65.815" cx="1068.46" cy="216.79" stroke="#365aa3" stroke-opacity="0.25" stroke-width="2"></circle><circle r="135.055" cx="1234.75" cy="341.51" stroke="#365aa3" stroke-opacity="0.25" stroke-width="2"></circle><circle r="157.53" cx="1345.86" cy="372.86" stroke="#365aa3" stroke-opacity="0.25" stroke-width="2"></circle><circle r="138.735" cx="1108.85" cy="64.36" stroke="#365aa3" stroke-opacity="0.25" stroke-width="2"></circle><circle r="102.44" cx="15.99" cy="99.23" stroke="#365aa3" stroke-opacity="0.25" stroke-width="2"></circle><circle r="161.495" cx="1381.79" cy="438.42" stroke="#365aa3" stroke-opacity="0.25" stroke-width="2"></circle></g><defs><clipPath id="SvgjsClipPath1288"><rect width="1440" height="559" x="0" y="0"></rect></clipPath><radialGradient cx="50%" cy="50%" r="772.35" gradientUnits="userSpaceOnUse" id="SvgjsRadialGradient1289"><stop stop-color="#0e2a47" offset="0"></stop><stop stop-color="rgba(1, 15, 34, 1)" offset="1"></stop></radialGradient></defs></svg>