<?xml version="1.0" standalone="no"?>
<!DOCTYPE svg PUBLIC "-//W3C//DTD SVG 20010904//EN"
 "http://www.w3.org/TR/2001/REC-SVG-20010904/DTD/svg10.dtd">
<svg version="1.0" xmlns="http://www.w3.org/2000/svg"
 width="2048.000000pt" height="2048.000000pt" viewBox="0 0 2048.000000 2048.000000"
 preserveAspectRatio="xMidYMid meet">
<metadata>
Created by potrace 1.14, written by Peter Selinger 2001-2017
</metadata>
<g transform="translate(0.000000,2048.000000) scale(0.100000,-0.100000)"
fill="#000000" stroke="none">
<path d="M11612 20298 c-134 -273 -469 -956 -830 -1692 -92 -187 -207 -421
-257 -520 l-90 -181 -190 -1 c-104 -1 -264 -4 -355 -8 -164 -7 -197 -9 -360
-22 -47 -3 -101 -8 -120 -9 -33 -2 -130 -13 -195 -21 -16 -2 -55 -6 -85 -9
-30 -4 -62 -8 -70 -10 -8 -2 -42 -7 -75 -11 -33 -3 -69 -8 -80 -10 -11 -2 -31
-6 -45 -9 -47 -8 -205 -35 -235 -40 -16 -3 -41 -8 -55 -11 -14 -3 -36 -8 -50
-10 -14 -3 -68 -14 -120 -25 -52 -11 -104 -22 -115 -25 -11 -2 -66 -15 -123
-30 -57 -14 -111 -27 -120 -29 -9 -2 -64 -17 -122 -33 -1135 -317 -2155 -835
-3075 -1561 -102 -80 -289 -234 -305 -251 -3 -3 -61 -54 -128 -114 -187 -165
-555 -535 -702 -706 -12 -14 -36 -41 -53 -60 -18 -19 -66 -76 -107 -125 -41
-50 -77 -92 -80 -95 -13 -11 -204 -260 -299 -391 -101 -139 -322 -466 -357
-528 -30 -53 -39 -68 -51 -82 -31 -39 -253 -442 -349 -634 -160 -321 -269
-570 -376 -860 -32 -88 -66 -180 -75 -205 -10 -25 -18 -49 -19 -55 -2 -5 -23
-73 -49 -150 -36 -111 -140 -474 -149 -520 -1 -5 -5 -19 -9 -30 -3 -11 -8 -31
-11 -45 -3 -14 -20 -92 -39 -175 -20 -82 -42 -188 -51 -235 -9 -47 -18 -96
-21 -110 -3 -14 -7 -38 -9 -55 -3 -16 -8 -46 -11 -65 -4 -19 -8 -46 -10 -60
-2 -14 -8 -54 -14 -90 -5 -36 -13 -87 -17 -115 -3 -27 -8 -59 -10 -70 -2 -11
-6 -47 -9 -80 -3 -33 -8 -71 -10 -85 -4 -24 -8 -66 -21 -210 -22 -254 -29
-437 -29 -790 0 -302 7 -517 20 -670 2 -25 7 -81 10 -125 3 -44 8 -96 10 -115
3 -19 9 -77 15 -128 12 -108 11 -102 46 -327 28 -185 71 -416 104 -565 12 -52
24 -106 26 -120 34 -179 262 -932 329 -1085 7 -16 27 -68 45 -115 39 -100 163
-391 215 -505 75 -163 266 -535 312 -607 12 -21 23 -39 23 -42 0 -14 350 -578
370 -596 3 -3 23 -33 45 -67 22 -34 42 -62 45 -63 3 0 39 64 79 143 104 200
214 414 316 612 48 94 129 251 180 350 51 99 111 216 134 259 l40 79 -40 71
c-59 105 -271 536 -319 650 -104 247 -180 452 -250 671 -39 122 -99 327 -105
356 -2 9 -8 34 -14 55 -23 79 -76 315 -106 469 -23 117 -61 360 -71 450 -3 28
-7 64 -9 80 -15 107 -28 260 -42 460 -15 214 -8 829 12 1025 3 31 13 145 20
225 2 17 6 49 9 73 3 23 8 61 11 85 5 42 13 99 20 147 6 36 44 260 50 290 28
144 43 210 80 366 58 241 199 706 245 809 5 11 23 58 40 105 36 96 118 293
176 420 36 81 215 438 234 470 6 8 51 87 102 175 87 153 125 214 227 370 71
110 252 362 322 450 35 44 76 96 90 115 166 218 546 619 830 875 77 69 241
208 309 262 528 418 1093 760 1660 1003 80 34 154 66 165 71 99 42 485 182
535 194 8 2 53 15 100 30 142 43 484 133 545 142 17 2 48 9 70 15 22 5 51 12
65 14 14 3 59 11 100 19 41 8 93 17 115 20 22 4 49 8 60 9 11 2 43 7 70 10 28
4 59 9 70 11 11 2 43 7 70 10 28 3 64 7 80 10 70 10 190 21 340 31 55 4 107 8
115 9 8 1 18 1 22 -2 4 -2 -21 -61 -56 -131 -35 -70 -121 -244 -191 -387 -227
-462 -365 -746 -470 -960 -56 -115 -160 -327 -230 -470 -125 -255 -244 -499
-480 -980 -65 -132 -174 -355 -242 -495 -69 -140 -174 -354 -233 -475 -228
-466 -489 -1000 -692 -1415 -298 -608 -350 -714 -700 -1430 -255 -521 -351
-716 -465 -950 -67 -135 -171 -348 -233 -475 -62 -126 -171 -349 -243 -495
-289 -589 -559 -1142 -702 -1435 -56 -115 -161 -329 -232 -475 -72 -146 -181
-368 -243 -495 -62 -126 -167 -340 -233 -475 -65 -135 -169 -346 -230 -470
-270 -553 -363 -742 -482 -985 -70 -143 -171 -350 -225 -460 -54 -110 -153
-312 -220 -450 -182 -372 -359 -733 -480 -980 -59 -121 -172 -350 -250 -510
-78 -159 -180 -366 -225 -460 -45 -93 -121 -248 -169 -344 -47 -96 -84 -177
-81 -180 3 -3 45 -6 93 -7 48 -1 242 -5 432 -8 190 -4 431 -9 535 -11 105 -2
330 -7 500 -10 171 -3 405 -8 520 -10 116 -3 343 -7 505 -10 162 -3 383 -7
490 -10 l195 -4 144 327 c80 180 162 364 183 410 21 46 38 85 38 87 0 2 18 43
40 90 22 47 40 88 40 91 0 2 16 38 35 80 19 41 35 77 35 79 0 2 14 34 31 72
38 85 43 96 119 268 34 77 71 159 81 183 11 24 133 298 270 610 138 312 259
585 269 607 10 22 55 123 100 225 44 102 87 199 95 215 7 17 31 71 53 120 22
50 54 120 71 158 17 37 31 69 31 71 0 2 18 43 40 90 22 47 40 88 40 90 0 3 13
33 29 68 16 35 43 97 61 138 18 41 45 102 60 135 31 67 62 137 65 145 1 3 8
21 17 40 8 19 58 132 110 250 53 118 119 269 148 335 29 66 65 147 80 180 15
33 53 119 84 190 32 72 66 148 76 170 25 54 55 124 130 295 35 80 68 151 73
158 7 9 423 12 2017 12 l2007 0 0 -598 c0 -334 4 -596 9 -595 5 1 23 13 39 26
45 36 1393 1071 1563 1199 77 60 362 278 377 291 6 4 57 44 115 88 58 44 114
88 125 97 11 9 31 24 45 33 14 9 35 25 47 35 11 11 159 125 328 254 l307 235
-90 85 c-49 47 -120 114 -158 150 -202 189 -361 339 -394 370 -88 83 -299 281
-340 320 -25 23 -106 99 -180 169 -74 70 -148 140 -165 155 -16 15 -91 85
-164 154 -74 70 -169 159 -210 197 -41 39 -88 84 -105 100 -18 17 -94 89 -171
160 -76 72 -153 144 -170 160 -18 17 -94 89 -170 160 -76 72 -150 141 -165
155 -14 14 -82 77 -150 140 -67 63 -139 131 -159 150 -75 73 -68 122 -69 -477
0 -296 -1 -557 -1 -580 l-1 -42 -1524 0 -1523 1 74 176 c41 97 80 191 88 207
7 17 59 140 115 275 57 135 110 263 120 285 10 22 32 76 50 120 18 44 37 84
41 89 5 6 9 16 9 24 0 12 14 45 65 157 7 17 59 140 115 275 56 135 110 263
120 285 10 22 34 81 55 130 20 50 43 104 50 120 7 17 37 86 65 155 29 69 58
139 66 155 7 17 43 102 79 190 37 88 75 178 85 200 10 22 64 150 120 285 56
135 111 264 121 287 11 24 24 55 30 70 13 36 105 255 129 308 10 22 45 108 79
190 34 83 71 167 82 188 10 21 19 42 19 48 0 5 10 31 21 57 21 45 45 101 194
457 37 88 75 178 85 200 10 22 37 87 61 145 23 58 46 109 51 114 4 6 8 16 8
23 0 7 13 41 29 75 15 35 56 131 91 213 34 83 70 168 80 190 10 22 82 193 160
380 78 187 150 358 160 380 10 22 64 150 120 285 56 135 108 259 115 275 8 17
30 71 51 120 20 50 40 93 43 97 3 4 5 -1192 5 -2658 l-1 -2665 60 -57 c33 -31
81 -77 107 -102 82 -78 323 -306 370 -350 84 -79 344 -325 425 -401 44 -42
100 -96 125 -119 25 -23 110 -103 189 -178 272 -259 503 -478 566 -537 22 -20
103 -96 179 -169 76 -72 155 -146 175 -165 20 -19 74 -70 121 -115 47 -45 101
-95 120 -113 l35 -32 -1 3519 c0 1936 2 3520 5 3520 11 0 291 -207 433 -321
132 -105 333 -277 418 -358 193 -183 454 -452 526 -541 16 -19 31 -37 34 -40
3 -3 41 -48 85 -100 44 -52 83 -97 86 -100 3 -3 69 -88 145 -190 387 -515 698
-1056 934 -1625 44 -106 53 -128 55 -135 1 -3 7 -18 14 -35 7 -16 17 -41 21
-55 5 -14 18 -50 30 -80 90 -233 256 -808 294 -1020 2 -14 13 -72 25 -130 25
-126 28 -145 42 -235 6 -38 12 -81 15 -95 13 -79 39 -298 49 -425 4 -44 8 -91
10 -104 24 -146 24 -916 1 -1146 -2 -16 -6 -66 -10 -110 -4 -44 -9 -98 -11
-120 -3 -22 -7 -60 -10 -85 -17 -156 -30 -238 -91 -583 -2 -15 -20 -96 -39
-180 -20 -84 -37 -161 -39 -172 -41 -205 -258 -857 -370 -1110 -153 -342 -256
-549 -399 -797 -51 -88 -100 -172 -109 -187 -10 -14 -25 -39 -34 -56 -91 -162
-476 -693 -614 -844 -14 -15 -41 -47 -60 -71 -19 -24 -46 -55 -60 -70 -14 -15
-63 -69 -110 -121 -106 -116 -343 -353 -440 -439 -40 -36 -82 -74 -94 -85 -12
-11 -50 -45 -86 -75 -36 -30 -67 -58 -70 -61 -3 -3 -70 -57 -150 -121 -898
-712 -1937 -1200 -3045 -1432 -66 -14 -136 -27 -155 -31 -47 -8 -140 -24 -166
-29 -12 -2 -45 -7 -74 -11 -29 -4 -60 -8 -69 -10 -9 -1 -59 -8 -111 -14 -52
-7 -111 -14 -130 -17 -19 -3 -64 -7 -100 -10 -36 -3 -83 -7 -105 -9 -300 -25
-954 -26 -1175 -1 -19 3 -67 7 -106 11 -39 3 -80 7 -90 9 -11 2 -50 7 -88 11
-38 4 -79 9 -90 11 -12 1 -43 6 -70 9 -27 3 -59 7 -70 10 -12 2 -37 7 -56 10
-19 2 -44 6 -55 8 -25 5 -79 15 -125 22 -31 5 -159 31 -200 40 -8 2 -46 10
-85 19 -38 8 -124 29 -190 46 -66 17 -127 33 -135 35 -58 13 -399 123 -510
163 -335 123 -517 202 -825 357 -99 49 -182 91 -185 93 -3 1 -12 -13 -19 -30
-8 -18 -70 -147 -138 -285 -67 -139 -138 -286 -157 -325 -18 -40 -82 -172
-141 -293 -123 -251 -164 -339 -162 -341 1 -1 70 -35 152 -77 555 -280 1089
-486 1675 -645 125 -34 376 -95 448 -108 13 -3 89 -18 170 -33 159 -32 225
-43 452 -75 101 -15 146 -20 255 -32 28 -3 64 -7 80 -9 17 -2 77 -7 135 -10
58 -4 116 -8 130 -11 132 -22 918 -22 1190 1 19 1 76 6 125 9 88 7 145 12 215
21 19 3 62 8 95 11 33 3 67 8 76 9 9 2 40 6 70 10 30 3 79 10 109 15 30 5 73
12 95 15 186 27 515 95 750 156 88 22 167 42 175 44 8 2 40 11 70 20 30 9 69
20 85 25 61 16 430 137 460 150 11 5 76 29 145 55 160 60 389 155 509 211 51
24 95 44 97 44 6 0 337 165 396 198 29 16 80 44 113 62 131 72 154 86 275 158
502 300 1011 682 1455 1092 97 89 423 417 517 520 671 736 1227 1601 1616
2515 136 321 259 666 358 1010 53 182 129 482 140 554 3 19 10 44 14 57 5 12
11 39 15 61 3 21 8 50 11 63 9 46 42 225 48 265 4 22 13 81 21 130 15 101 22
149 30 215 3 25 9 79 15 120 11 88 16 144 25 260 4 47 9 101 10 120 25 275 25
1017 0 1300 -13 149 -17 193 -20 217 -2 16 -6 64 -10 108 -4 44 -9 89 -11 100
-2 11 -9 58 -14 105 -11 83 -17 130 -25 180 -3 14 -7 43 -10 65 -36 230 -138
713 -190 890 -8 28 -29 100 -46 160 -229 814 -620 1666 -1096 2395 -139 212
-339 492 -432 606 -31 37 -39 48 -116 144 -61 77 -69 87 -150 180 -194 224
-271 305 -471 505 -133 132 -294 284 -394 371 -25 21 -47 41 -50 44 -3 3 -34
30 -70 60 -36 30 -67 57 -70 60 -16 17 -264 211 -375 293 -71 53 -141 104
-155 115 -90 68 -440 296 -562 367 -9 6 -54 32 -100 59 -46 26 -103 60 -128
73 -25 14 -49 30 -55 35 -7 6 -10 628 -10 1826 l0 1817 -1352 3 -1352 2 -89
-182z"/>
<path d="M14289 6137 c-57 -51 -148 -128 -177 -151 -15 -11 -43 -35 -62 -53
-36 -33 -42 -38 -131 -113 -29 -25 -92 -78 -139 -119 -47 -40 -96 -83 -110
-95 -14 -11 -54 -46 -90 -76 -35 -30 -73 -63 -85 -73 -11 -10 -72 -62 -135
-115 -63 -53 -119 -102 -125 -108 -5 -6 -86 -75 -180 -155 -93 -79 -172 -146
-175 -149 -3 -3 -34 -30 -70 -60 -35 -30 -72 -62 -80 -70 -9 -8 -68 -58 -131
-112 -63 -53 -125 -106 -139 -118 -14 -12 -47 -40 -74 -63 -27 -23 -54 -47
-60 -52 -6 -6 -103 -89 -216 -185 -113 -96 -218 -187 -235 -201 -16 -14 -45
-40 -64 -56 l-35 -30 1281 0 1281 0 0 1093 c0 602 -3 1094 -7 1094 -3 0 -22
-15 -42 -33z"/>
</g>
</svg>
